PathFileType	4	(X/Y/Z)	C:/Users/beibeiliu/ov580/test_trc/User2\sequence.7_training_dense_right.trc
DataRate	CameraRate	NumFrames	NumMarkers	Units	OrigDataRate	OrigDataStartFrame	OrigNumFrames
120	120	16	19	mm	120	296	338
Frame#	Time	ThumbCMC			ThumbMCP			ThumbIP			ThumbTip			IndexMCP			IndexPIP			IndexTip			MiddleMCP			MiddlePIP			MiddleTip			RingMCP			RingPIP			RingTip			PinkyMCP			PinkyPIP			PinkyTip			BackHand1			BackHand2			BackHand3	
		X0	Y0	Z0	X1	Y1	Z1	X2	Y2	Z2	X3	Y3	Z3	X4	Y4	Z4	X5	Y5	Z5	X6	Y6	Z6	X7	Y7	Z7	X8	Y8	Z8	X9	Y9	Z9	X10	Y10	Z10	X11	Y11	Z11	X12	Y12	Z12	X13	Y13	Z13	X14	Y14	Z14	X15	Y15	Z15	X16	Y16	Z16	X17	Y17	Z17	X18	Y18	Z18	
295	2.45833	81.9967	32.2513	94.1224	62.9271	20.9955	70.4971	43.5298	9.82581	45.2919	31.3333	-1.94258	24.1021	87.5644	-7.96286	21.4352	85.0338	-36.7926	41.2645	88.5616	-12.6761	68.5066	108.687	-17.1133	23.6257	101.864	-42.7939	49.2352	104.262	-13.8521	77.8702	125.513	-29.0548	35.8945	117.715	-40.7592	63.691	120.96	-8.79823	81.128	141.07	-32.2052	49.0062	130.338	-32.6661	79.0452	131.546	-4.00829	84.6349	145.103	27.7375	55.5178	149.772	43.9039	85.037	111.166	46.987	70.1659	
296	2.46667	87.4738	34.5734	82.1058	68.5042	22.7168	59.5687	46.5912	12.471	30.9077	36.9014	0.559824	11.4867	94.5939	-6.99847	14.6193	90.6334	-34.5804	31.7132	92.5873	-9.28318	61.1726	117.252	-19.6704	18.7108	105.439	-40.086	45.7335	107.464	-9.74876	73.2728	129.069	-29.8832	32.7427	117.415	-36.4015	61.5409	121.286	-6.57204	75.065	145.302	-31.4602	45.8899	135.339	-32.6593	75.5565	138.424	2.78263	83.7817	151.002	28.4432	52.1828	156.126	43.857	80.8221	116.635	50.2542	63.9842	
297	2.475	92.1903	36.2677	74.3645	72.1828	25.6537	47.7424	54.2683	14.0411	21.9013	43.9859	1.36042	0.147159	105.746	-10.667	5.76607	97.2183	-33.1958	23.7341	97.5642	-5.89956	53.6816	125.697	-21.6072	12.1104	109.551	-39.0891	41.6742	115.379	-10.2664	66.3396	139.111	-27.8109	26.884	123.931	-37.1244	54.7152	128.451	-3.45962	70.7547	153.939	-28.4975	41.0737	138.383	-30.8499	70.8857	141.471	-0.759862	78.0382	160.168	28.9772	46.1531	155.934	46.5062	75.7977	123.274	51.478	56.2447	
298	2.48333	96.422	38.5635	65.2681	80.2898	26.0633	39.3904	65.9831	12.3846	12.0032	52.7851	2.4438	-8.12563	115.895	-8.2836	-0.895117	103.498	-32.7493	20.5476	105.411	-7.4517	44.0424	135.178	-18.1329	5.50882	119.019	-38.9681	32.4308	116.47	-8.69871	57.8674	147.128	-27.7466	21.8455	134.717	-37.5494	46.3136	133.357	-1.23683	62.7375	163.041	-30.3684	36.9978	142.704	-30.1618	61.0758	144.601	0.121372	70.0121	168.188	28.6595	39.1999	163.769	48.6232	73.5645	133.823	48.1115	49.1242	
299	2.49167	102.527	35.734	60.0986	83.3306	25.8158	30.3292	70.421	12.3853	7.01769	60.1019	0.425467	-16.4191	122.354	-5.60407	-7.07121	113.898	-32.6894	9.30499	111.892	-9.04828	38.2742	142.184	-19.4696	-0.36366	130.508	-39.4233	24.3918	124.4	-11.9695	52.7541	155.002	-27.1348	15.298	140.453	-36.2467	41.319	138.753	-3.33084	56.987	171.668	-24.2661	29.8112	148.541	-28.4818	56.1869	151.168	3.4947	64.7935	171.607	33.7315	37.427	170.533	47.7727	67.2498	134.742	50.1882	44.978	
300	2.5	104.612	33.9221	58.533	83.3418	24.0277	31.7058	70.4725	12.4257	-0.0637062	62.691	1.39577	-15.698	124.799	-5.99017	-12.158	118.001	-32.1399	5.06011	112.938	-9.1577	35.1685	144.454	-14.3774	-6.01592	131.67	-38.3217	15.7481	129.52	-11.8858	49.1628	160.907	-22.0256	9.04998	146.031	-36.9927	33.7131	138.965	-6.68096	51.3021	173.968	-25.3484	23.9574	154.485	-28.6481	53.0227	152.283	-0.0799004	61.6749	170.391	35.9583	30.2707	167.63	50.8935	63.2179	133.745	51.2174	42.1715	
301	2.50833	96.6187	31.5803	62.1362	82.095	20.4294	34.7535	64.003	10.7104	6.64335	56.3355	1.15399	-15.2822	118.107	-3.38004	-12.9949	115.421	-31.3668	3.97278	113.49	-11.1394	35.6094	141.563	-12.9574	-8.59559	131.858	-37.499	15.5059	127.716	-11.6053	48.0539	155.699	-19.5195	5.12018	145.284	-35.0224	27.5037	136.988	-3.88203	48.917	169.016	-18.8015	16.4874	157.273	-28.6042	43.3933	153.048	4.17692	60.3973	165.58	39.1877	31.2752	164.126	53.8785	65.6046	131.649	49.278	41.4083	
302	2.51667	95.4048	24.6537	68.7423	75.8358	16.03	45.1892	56.171	7.84386	17.3334	45.5059	-1.71925	0.330037	103.574	-1.55114	-7.75956	109.069	-31.8168	6.81192	107.031	-13.0997	39.0509	127.431	-7.14371	-6.50202	126.256	-37.1341	16.2482	122.585	-14.3721	49.9973	148.192	-18.3395	2.12926	141.974	-34.4417	28.095	136.424	-5.88434	50.4619	161.717	-16.2378	11.9839	153.133	-28.8741	42.1642	150.058	-0.147742	57.4035	151.669	40.8197	29.6176	154.994	52.0009	68.0344	120.288	47.7933	47.6032	
303	2.525	88.4569	20.0832	79.5261	67.2249	12.7715	55.3498	42.6536	5.79128	30.7052	27.7976	-2.46827	18.7247	91.3969	-1.21687	-0.756396	93.9249	-33.8943	11.1071	98.9338	-19.8879	42.7912	114.791	-9.92473	-4.36495	111.905	-38.6092	19.6286	114.398	-17.8162	51.612	133.976	-12.4012	2.27698	134.069	-35.8046	27.5647	128.697	-7.06424	51.909	152.262	-17.8643	9.7324	146.391	-30.3117	38.1725	139.935	-0.972851	57.4659	139.746	38.7631	31.7478	147.788	48.1198	68.0531	109.103	44.0157	57.639	
304	2.53333	88.3622	15.9131	85.9193	64.0728	10.6761	66.2197	39.562	5.81144	43.9674	21.4479	-1.52881	31.2298	77.9979	-3.98522	4.63348	85.3063	-32.3102	12.9395	95.468	-16.3473	46.7955	100.972	-7.43923	-0.420314	106.647	-36.997	19.0354	107.8	-15.53	56.0787	121.505	-14.9545	3.94052	124.269	-35.1833	29.3424	124.396	-9.99815	52.0894	143.589	-15.4095	8.15951	140.26	-31.2632	35.0151	142.316	-6.44319	56.5946	133.848	39.1539	35.5896	144.574	46.7138	69.117	104.024	44.0427	65.7981	
305	2.54167	88.9635	15.5257	89.2606	64.7968	9.39889	73.2344	37.5242	7.55808	48.1497	18.0534	1.69469	33.9335	76.9733	1.20531	7.94236	81.5906	-30.3354	13.5235	92.8423	-18.6976	47.3753	98.6818	-2.53925	1.55306	102.511	-35.2813	20.9732	107.771	-16.6782	53.9294	119.843	-14.1669	3.63932	121.055	-34.495	23.8912	122.157	-9.2736	51.9817	142.893	-10.8871	7.87273	139.959	-30.8216	37.8207	137.333	-6.67304	54.4671	135.593	39.541	39.5437	148.33	46.1515	69.6246	105.205	41.9804	68.3396	
306	2.55	90.5982	18.8332	84.7305	66.4019	12.3267	67.3656	38.5077	9.93786	45.7013	23.4429	3.04697	31.399	79.507	0.936854	2.18505	88.6457	-27.4379	9.46133	99.3753	-16.5292	42.9763	105.472	-2.77482	-2.74802	106.136	-34.2296	18.4103	113.85	-14.8944	50.3823	125.821	-10.5855	1.48565	125.429	-32.7542	22.9323	130.167	-6.9848	50.2232	143.365	-12.363	6.43707	143.248	-31.1042	31.7228	143.998	-3.28102	56.1584	140.542	40.0857	38.3184	154.996	44.342	70.9375	113.984	43.431	60.9426	
307	2.55833	98.5959	20.2798	75.1097	77.9962	13.6291	54.0287	53.1854	10.7151	32.5111	31.8325	6.45514	12.7905	99.0308	1.52263	-7.17056	97.1714	-28.5259	5.59414	103.616	-16.8519	36.0816	117.761	-4.58467	-9.43293	117.194	-34.5243	12.4644	120.626	-16.2064	45.6191	141.359	-14.3867	-3.54422	133.775	-33.6954	19.4608	136.25	-7.18496	46.2927	159.686	-16.2797	5.00166	150.72	-31.452	33.78	149.271	-4.12908	51.7349	155.499	36.5372	31.2305	159.076	42.7619	64.7527	123.095	45.4708	54.8643	
308	2.56667	110.318	22.7038	63.4664	89.8372	14.496	44.5256	68.2422	8.98134	17.7203	53.5191	2.69849	-4.15235	117.637	2.73586	-15.0096	117.45	-28.1149	-3.20153	118.956	-18.4011	27.0521	139.442	-8.6009	-15.3095	134.181	-35.8123	2.98766	132.501	-16.3862	39.4728	157.674	-19.4986	-6.35932	150.808	-37.3281	16.4661	145.142	-11.5559	40.893	172.826	-15.8924	4.58816	162.07	-34.4441	31.0402	161.17	-3.93186	50.2521	170.866	34.1805	27.7527	174.048	42.6167	60.7721	136.375	44.3673	46.9208	
309	2.575	120.626	23.6816	55.6763	100.231	15.2548	28.8022	80.9976	7.31102	0.932439	72.7478	-2.47843	-17.0456	130.715	-2.10596	-22.1316	130.703	-30.863	-11.0761	129.98	-18.2229	22.8334	157.175	-8.82552	-18.4434	147.478	-39.9037	3.97562	144.436	-18.5557	35.8397	170.888	-24.1388	-7.28428	162.414	-41.0987	15.8416	158.715	-11.3897	40.4456	188.531	-24.4615	5.87976	172.782	-37.8069	29.6053	170.522	-9.02625	48.502	183.824	33.3558	27.873	187.614	41.5105	60.512	151.922	45.0669	38.5717	
310	2.58333	125.066	21.1052	50.3144	111.52	9.76568	27.2024	90.2032	1.46167	0.527458	83.7572	-8.99505	-21.9826	142.625	-8.3744	-23.9903	140.876	-36.031	-12.8022	140.518	-24.1255	20.7609	166.402	-14.949	-18.5445	159.006	-44.0558	1.11124	148.978	-23.0805	35.21	185.643	-24.8595	-6.86796	168.292	-42.6439	16.288	163.809	-14.1616	37.8884	198.755	-29.2987	6.20336	178.286	-37.0385	31.6892	178.965	-8.0864	47.607	191.548	30.8886	23.336	191.212	39.5614	58.4323	157.846	40.7384	35.7231	
